<?xml version="1.0" encoding="UTF-8" standalone="no"?>
<svg
   xmlns:dc="http://purl.org/dc/elements/1.1/"
   xmlns:cc="http://creativecommons.org/ns#"
   xmlns:rdf="http://www.w3.org/1999/02/22-rdf-syntax-ns#"
   xmlns:svg="http://www.w3.org/2000/svg"
   xmlns="http://www.w3.org/2000/svg"
   xmlns:sodipodi="http://sodipodi.sourceforge.net/DTD/sodipodi-0.dtd"
   xmlns:inkscape="http://www.inkscape.org/namespaces/inkscape"
   width="388.91675"
   height="350.22385"
   id="svg2"
   version="1.1"
   inkscape:version="0.48.2 r9819"
   sodipodi:docname="srijaystridemount.svg">
  <metadata
     id="metadata164">
    <rdf:RDF>
      <cc:Work
         rdf:about="">
        <dc:format>image/svg+xml</dc:format>
        <dc:type
           rdf:resource="http://purl.org/dc/dcmitype/StillImage" />
        <dc:title />
      </cc:Work>
    </rdf:RDF>
  </metadata>
  <sodipodi:namedview
     pagecolor="#ffffff"
     bordercolor="#666666"
     borderopacity="1"
     objecttolerance="10"
     gridtolerance="10"
     guidetolerance="10"
     inkscape:pageopacity="0"
     inkscape:pageshadow="2"
     inkscape:window-width="1600"
     inkscape:window-height="1144"
     id="namedview162"
     showgrid="false"
     inkscape:zoom="2.5371827"
     inkscape:cx="235.20465"
     inkscape:cy="173.29742"
     inkscape:window-x="-4"
     inkscape:window-y="-4"
     inkscape:window-maximized="1"
     inkscape:current-layer="g22"
     fit-margin-top="0"
     fit-margin-left="0"
     fit-margin-right="0"
     fit-margin-bottom="0"
     showguides="true"
     inkscape:guide-bbox="true" />
  <desc
     id="desc4">F:\srijaystridemount.dxf - scale = 1.000000</desc>
  <defs
     id="defs6">
    <marker
       refY="0"
       refX="0"
       style="overflow:visible"
       id="DistanceX"
       orient="auto">
      <path
         style="stroke:#000000;stroke-width:0.5"
         d="M 3,-3 -3,3 M 0,-5 0,5"
         id="path9"
         inkscape:connector-curvature="0" />
    </marker>
    <pattern
       height="8"
       width="8"
       patternUnits="userSpaceOnUse"
       y="0"
       x="0"
       id="Hatch">
      <path
         linecap="square"
         stroke="#000000"
         stroke-width="0.25"
         d="M8 4 l-4,4"
         id="path12" />
      <path
         linecap="square"
         stroke="#000000"
         stroke-width="0.25"
         d="M6 2 l-4,4"
         id="path14" />
      <path
         linecap="square"
         stroke="#000000"
         stroke-width="0.25"
         d="M4 0 l-4,4"
         id="path16" />
    </pattern>
    <symbol
       id="*MODEL_SPACE" />
    <symbol
       id="*PAPER_SPACE" />
  </defs>
  <g
     inkscape:label="0"
     inkscape:groupmode="layer"
     id="g20"
     transform="translate(-0.352651,-701.78575)" />
  <g
     inkscape:label="Layer_1"
     inkscape:groupmode="layer"
     id="g22"
     transform="translate(-0.352651,-701.78575)">
    <path
       style="fill:none;stroke:#000000;stroke-width:1.00156868"
       d="m 0.852651,702.28575 171.916749,0 0,350.32035 -171.916749,0 0,-350.32035"
       id="path32"
       inkscape:connector-curvature="0" />
    <path
       style="fill:none;stroke:#000000;stroke-width:1.06670618"
       d="m 58.260035,783.43589 53.298375,0 0,13.17938 -53.298375,0 0,-13.17938"
       id="path112"
       inkscape:connector-curvature="0" />
    <path
       sodipodi:type="arc"
       style="fill:none;stroke:#000000;stroke-width:0.95923442;stroke-linejoin:miter;stroke-miterlimit:4;stroke-opacity:1;stroke-dasharray:none"
       id="path3841"
       sodipodi:cx="150.95483"
       sodipodi:cy="712.41821"
       sodipodi:rx="6.6018109"
       sodipodi:ry="6.3062072"
       d="m 157.55664,712.41821 c 0,3.48282 -2.95573,6.30621 -6.60181,6.30621 -3.64608,0 -6.60181,-2.82339 -6.60181,-6.30621 0,-3.48282 2.95573,-6.3062 6.60181,-6.3062 3.64608,0 6.60181,2.82338 6.60181,6.3062 z"
       transform="matrix(1.1439255,0,0,1.1975471,-86.832843,-131.50977)" />
    <rect
       style="color:#000000;fill:none;stroke:#000000;stroke-width:1.32022095;stroke-linecap:butt;stroke-linejoin:miter;stroke-miterlimit:4;stroke-opacity:1;stroke-dasharray:none;stroke-dashoffset:0;marker:none;visibility:visible;display:inline;overflow:visible;enable-background:accumulate"
       id="rect3853"
       width="21.179779"
       height="21.07514"
       x="15.548532"
       y="717.43433"
       ry="0" />
    <rect
       ry="0"
       y="717.43439"
       x="141.27853"
       height="21.075138"
       width="21.179779"
       id="rect3855"
       style="color:#000000;fill:none;stroke:#000000;stroke-width:1.32022071;stroke-linecap:butt;stroke-linejoin:miter;stroke-miterlimit:4;stroke-opacity:1;stroke-dasharray:none;stroke-dashoffset:0;marker:none;visibility:visible;display:inline;overflow:visible;enable-background:accumulate" />
    <path
       transform="matrix(1.1439255,0,0,1.1975471,-114.83284,-117.50977)"
       d="m 157.55664,712.41821 c 0,3.48282 -2.95573,6.30621 -6.60181,6.30621 -3.64608,0 -6.60181,-2.82339 -6.60181,-6.30621 0,-3.48282 2.95573,-6.3062 6.60181,-6.3062 3.64608,0 6.60181,2.82338 6.60181,6.3062 z"
       sodipodi:ry="6.3062072"
       sodipodi:rx="6.6018109"
       sodipodi:cy="712.41821"
       sodipodi:cx="150.95483"
       id="path3006"
       style="fill:none;stroke:#000000;stroke-width:0.95923442;stroke-linejoin:miter;stroke-miterlimit:4;stroke-opacity:1;stroke-dasharray:none"
       sodipodi:type="arc" />
    <path
       sodipodi:type="arc"
       style="fill:none;stroke:#000000;stroke-width:0.95923442;stroke-linejoin:miter;stroke-miterlimit:4;stroke-opacity:1;stroke-dasharray:none"
       id="path3008"
       sodipodi:cx="150.95483"
       sodipodi:cy="712.41821"
       sodipodi:rx="6.6018109"
       sodipodi:ry="6.3062072"
       d="m 157.55664,712.41821 c 0,3.48282 -2.95573,6.30621 -6.60181,6.30621 -3.64608,0 -6.60181,-2.82339 -6.60181,-6.30621 0,-3.48282 2.95573,-6.3062 6.60181,-6.3062 3.64608,0 6.60181,2.82338 6.60181,6.3062 z"
       transform="matrix(1.1439255,0,0,1.1975471,-56.83284,-117.50811)" />
    <path
       transform="matrix(1.1439255,0,0,-1.1975471,-86.832843,1890.2106)"
       d="m 157.55664,712.41821 a 6.6018109,6.3062072 0 1 1 -13.20362,0 6.6018109,6.3062072 0 1 1 13.20362,0 z"
       sodipodi:ry="6.3062072"
       sodipodi:rx="6.6018109"
       sodipodi:cy="712.41821"
       sodipodi:cx="150.95483"
       id="path3002"
       style="fill:none;stroke:#000000;stroke-width:0.95923442;stroke-linejoin:miter;stroke-miterlimit:4;stroke-opacity:1;stroke-dasharray:none"
       sodipodi:type="arc" />
    <rect
       ry="0"
       y="-1041.2665"
       x="15.548532"
       height="21.07514"
       width="21.179779"
       id="rect3004"
       style="color:#000000;fill:none;stroke:#000000;stroke-width:1.32022095;stroke-linecap:butt;stroke-linejoin:miter;stroke-miterlimit:4;stroke-opacity:1;stroke-dasharray:none;stroke-dashoffset:0;marker:none;visibility:visible;display:inline;overflow:visible;enable-background:accumulate"
       transform="scale(1,-1)" />
    <rect
       style="color:#000000;fill:none;stroke:#000000;stroke-width:1.32022071;stroke-linecap:butt;stroke-linejoin:miter;stroke-miterlimit:4;stroke-opacity:1;stroke-dasharray:none;stroke-dashoffset:0;marker:none;visibility:visible;display:inline;overflow:visible;enable-background:accumulate"
       id="rect3006"
       width="21.179779"
       height="21.075138"
       x="141.27853"
       y="-1041.2665"
       ry="0"
       transform="scale(1,-1)" />
    <path
       inkscape:connector-curvature="0"
       id="path3009"
       d="m 58.260035,955.43589 53.298375,0 0,13.17938 -53.298375,0 0,-13.17938"
       style="fill:none;stroke:#000000;stroke-width:1.06670618" />
    <rect
       style="color:#000000;fill:none;stroke:#000000;stroke-width:0.6326738px;stroke-linecap:butt;stroke-linejoin:miter;stroke-miterlimit:4;stroke-opacity:1;stroke-dasharray:none;stroke-dashoffset:0;marker:none;visibility:visible;display:inline;overflow:visible;enable-background:accumulate"
       id="rect3011"
       width="172.16733"
       height="34.800396"
       x="-0.22515006"
       y="844.67291" />
  </g>
</svg>
