<?xml version="1.0" encoding="UTF-8" standalone="no"?>
<!-- Created with Inkscape (http://www.inkscape.org/) -->

<svg
   xmlns:dc="http://purl.org/dc/elements/1.1/"
   xmlns:cc="http://creativecommons.org/ns#"
   xmlns:rdf="http://www.w3.org/1999/02/22-rdf-syntax-ns#"
   xmlns:svg="http://www.w3.org/2000/svg"
   xmlns="http://www.w3.org/2000/svg"
   xmlns:sodipodi="http://sodipodi.sourceforge.net/DTD/sodipodi-0.dtd"
   xmlns:inkscape="http://www.inkscape.org/namespaces/inkscape"
   width="744.09448819"
   height="1052.3622047"
   id="svg3085"
   version="1.1"
   inkscape:version="0.48.2 r9819"
   sodipodi:docname="walkermount.svg">
  <defs
     id="defs3087" />
  <sodipodi:namedview
     id="base"
     pagecolor="#ffffff"
     bordercolor="#666666"
     borderopacity="1.0"
     inkscape:pageopacity="0.0"
     inkscape:pageshadow="2"
     inkscape:zoom="0.98994949"
     inkscape:cx="249.59848"
     inkscape:cy="773.09796"
     inkscape:document-units="px"
     inkscape:current-layer="layer1"
     showgrid="false"
     inkscape:window-width="1600"
     inkscape:window-height="1144"
     inkscape:window-x="-4"
     inkscape:window-y="-4"
     inkscape:window-maximized="1" />
  <metadata
     id="metadata3090">
    <rdf:RDF>
      <cc:Work
         rdf:about="">
        <dc:format>image/svg+xml</dc:format>
        <dc:type
           rdf:resource="http://purl.org/dc/dcmitype/StillImage" />
        <dc:title></dc:title>
      </cc:Work>
    </rdf:RDF>
  </metadata>
  <g
     inkscape:label="Layer 1"
     inkscape:groupmode="layer"
     id="layer1">
    <path
       style="fill:none;stroke:#000000;stroke-width:1.00156868"
       d="m 289.41083,357.44761 171.91675,0 0,350.32036 -171.91675,0 0,-350.32036"
       id="path32"
       inkscape:connector-curvature="0" />
    <path
       style="fill:none;stroke:#000000;stroke-width:1.06670618"
       d="m 346.81822,438.59775 53.29837,0 0,13.17938 -53.29837,0 0,-13.17938"
       id="path112"
       inkscape:connector-curvature="0" />
    <path
       sodipodi:type="arc"
       style="fill:none;stroke:#000000;stroke-width:0.95923442;stroke-linejoin:miter;stroke-miterlimit:4;stroke-opacity:1;stroke-dasharray:none"
       id="path3841"
       sodipodi:cx="150.95483"
       sodipodi:cy="712.41821"
       sodipodi:rx="6.6018109"
       sodipodi:ry="6.3062072"
       d="m 157.55664,712.41821 a 6.6018109,6.3062072 0 1 1 -13.20362,0 6.6018109,6.3062072 0 1 1 13.20362,0 z"
       transform="matrix(1.1439255,0,0,1.1975471,201.72534,-476.3479)" />
    <rect
       style="color:#000000;fill:none;stroke:#000000;stroke-width:2.50072789;stroke-linecap:butt;stroke-linejoin:miter;stroke-miterlimit:4;stroke-opacity:1;stroke-dasharray:none;stroke-dashoffset:0;marker:none;visibility:visible;display:inline;overflow:visible;enable-background:accumulate"
       id="rect3853"
       width="40.018959"
       height="40.018959"
       x="289.71973"
       y="357.06213"
       ry="0" />
    <rect
       ry="0"
       y="359.06219"
       x="420.42697"
       height="40.018959"
       width="40.018959"
       id="rect3855"
       style="color:#000000;fill:none;stroke:#000000;stroke-width:2.50072765;stroke-linecap:butt;stroke-linejoin:miter;stroke-miterlimit:4;stroke-opacity:1;stroke-dasharray:none;stroke-dashoffset:0;marker:none;visibility:visible;display:inline;overflow:visible;enable-background:accumulate" />
    <path
       transform="matrix(1.1439255,0,0,1.1975471,173.72534,-462.3479)"
       d="m 157.55664,712.41821 a 6.6018109,6.3062072 0 1 1 -13.20362,0 6.6018109,6.3062072 0 1 1 13.20362,0 z"
       sodipodi:ry="6.3062072"
       sodipodi:rx="6.6018109"
       sodipodi:cy="712.41821"
       sodipodi:cx="150.95483"
       id="path3006"
       style="fill:none;stroke:#000000;stroke-width:0.95923442;stroke-linejoin:miter;stroke-miterlimit:4;stroke-opacity:1;stroke-dasharray:none"
       sodipodi:type="arc" />
    <path
       sodipodi:type="arc"
       style="fill:none;stroke:#000000;stroke-width:0.95923442;stroke-linejoin:miter;stroke-miterlimit:4;stroke-opacity:1;stroke-dasharray:none"
       id="path3008"
       sodipodi:cx="150.95483"
       sodipodi:cy="712.41821"
       sodipodi:rx="6.6018109"
       sodipodi:ry="6.3062072"
       d="m 157.55664,712.41821 a 6.6018109,6.3062072 0 1 1 -13.20362,0 6.6018109,6.3062072 0 1 1 13.20362,0 z"
       transform="matrix(1.1439255,0,0,1.1975471,231.72534,-462.34624)" />
    <path
       transform="matrix(1.1439255,0,0,-1.1975471,201.72534,1545.3725)"
       d="m 157.55664,712.41821 a 6.6018109,6.3062072 0 1 1 -13.20362,0 6.6018109,6.3062072 0 1 1 13.20362,0 z"
       sodipodi:ry="6.3062072"
       sodipodi:rx="6.6018109"
       sodipodi:cy="712.41821"
       sodipodi:cx="150.95483"
       id="path3002"
       style="fill:none;stroke:#000000;stroke-width:0.95923442;stroke-linejoin:miter;stroke-miterlimit:4;stroke-opacity:1;stroke-dasharray:none"
       sodipodi:type="arc" />
    <rect
       ry="0"
       y="-707.66223"
       x="290.11386"
       height="40.018959"
       width="40.018959"
       id="rect3004"
       style="color:#000000;fill:none;stroke:#000000;stroke-width:2.50072765;stroke-linecap:butt;stroke-linejoin:miter;stroke-miterlimit:4;stroke-opacity:1;stroke-dasharray:none;stroke-dashoffset:0;marker:none;visibility:visible;display:inline;overflow:visible;enable-background:accumulate"
       transform="scale(1,-1)" />
    <rect
       style="color:#000000;fill:none;stroke:#000000;stroke-width:2.50072742;stroke-linecap:butt;stroke-linejoin:miter;stroke-miterlimit:4;stroke-opacity:1;stroke-dasharray:none;stroke-dashoffset:0;marker:none;visibility:visible;display:inline;overflow:visible;enable-background:accumulate"
       id="rect3006"
       width="40.018959"
       height="40.018959"
       x="420.42697"
       y="-705.69153"
       ry="0"
       transform="scale(1,-1)" />
    <path
       inkscape:connector-curvature="0"
       id="path3009"
       d="m 346.81822,610.59776 53.29837,0 0,13.17938 -53.29837,0 0,-13.17938"
       style="fill:none;stroke:#000000;stroke-width:1.06670618" />
    <path
       sodipodi:type="arc"
       style="fill:none;stroke:#000000;stroke-width:0.95923442;stroke-linejoin:miter;stroke-miterlimit:4;stroke-opacity:1;stroke-dasharray:none"
       id="path3013"
       sodipodi:cx="150.95483"
       sodipodi:cy="712.41821"
       sodipodi:rx="6.6018109"
       sodipodi:ry="6.3062072"
       d="m 157.55664,712.41821 a 6.6018109,6.3062072 0 1 1 -13.20362,0 6.6018109,6.3062072 0 1 1 13.20362,0 z"
       transform="matrix(1.1439255,0,0,1.1975471,143.72534,-236.3479)" />
    <path
       transform="matrix(1.1439255,0,0,1.1975471,257.72534,-236.3479)"
       d="m 157.55664,712.41821 a 6.6018109,6.3062072 0 1 1 -13.20362,0 6.6018109,6.3062072 0 1 1 13.20362,0 z"
       sodipodi:ry="6.3062072"
       sodipodi:rx="6.6018109"
       sodipodi:cy="712.41821"
       sodipodi:cx="150.95483"
       id="path3015"
       style="fill:none;stroke:#000000;stroke-width:0.95923442;stroke-linejoin:miter;stroke-miterlimit:4;stroke-opacity:1;stroke-dasharray:none"
       sodipodi:type="arc" />
    <path
       transform="matrix(1.1439255,0,0,1.1975471,143.72534,-408.3479)"
       d="m 157.55664,712.41821 a 6.6018109,6.3062072 0 1 1 -13.20362,0 6.6018109,6.3062072 0 1 1 13.20362,0 z"
       sodipodi:ry="6.3062072"
       sodipodi:rx="6.6018109"
       sodipodi:cy="712.41821"
       sodipodi:cx="150.95483"
       id="path3029"
       style="fill:none;stroke:#000000;stroke-width:0.95923442;stroke-linejoin:miter;stroke-miterlimit:4;stroke-opacity:1;stroke-dasharray:none"
       sodipodi:type="arc" />
    <path
       sodipodi:type="arc"
       style="fill:none;stroke:#000000;stroke-width:0.95923442;stroke-linejoin:miter;stroke-miterlimit:4;stroke-opacity:1;stroke-dasharray:none"
       id="path3031"
       sodipodi:cx="150.95483"
       sodipodi:cy="712.41821"
       sodipodi:rx="6.6018109"
       sodipodi:ry="6.3062072"
       d="m 157.55664,712.41821 a 6.6018109,6.3062072 0 1 1 -13.20362,0 6.6018109,6.3062072 0 1 1 13.20362,0 z"
       transform="matrix(1.1439255,0,0,1.1975471,257.72534,-408.3479)" />
    <path
       transform="matrix(1.1439255,0,0,1.1975471,201.72534,-384.3479)"
       d="m 157.55664,712.41821 a 6.6018109,6.3062072 0 1 1 -13.20362,0 6.6018109,6.3062072 0 1 1 13.20362,0 z"
       sodipodi:ry="6.3062072"
       sodipodi:rx="6.6018109"
       sodipodi:cy="712.41821"
       sodipodi:cx="150.95483"
       id="path3033"
       style="fill:none;stroke:#000000;stroke-width:0.95923442;stroke-linejoin:miter;stroke-miterlimit:4;stroke-opacity:1;stroke-dasharray:none"
       sodipodi:type="arc" />
    <path
       sodipodi:type="arc"
       style="fill:none;stroke:#000000;stroke-width:0.95923442;stroke-linejoin:miter;stroke-miterlimit:4;stroke-opacity:1;stroke-dasharray:none"
       id="path3037"
       sodipodi:cx="150.95483"
       sodipodi:cy="712.41821"
       sodipodi:rx="6.6018109"
       sodipodi:ry="6.3062072"
       d="m 157.55664,712.41821 a 6.6018109,6.3062072 0 1 1 -13.20362,0 6.6018109,6.3062072 0 1 1 13.20362,0 z"
       transform="matrix(1.1439255,0,0,-1.1975471,173.72534,1523.9609)" />
    <path
       transform="matrix(1.1439255,0,0,-1.1975471,231.72534,1523.9592)"
       d="m 157.55664,712.41821 a 6.6018109,6.3062072 0 1 1 -13.20362,0 6.6018109,6.3062072 0 1 1 13.20362,0 z"
       sodipodi:ry="6.3062072"
       sodipodi:rx="6.6018109"
       sodipodi:cy="712.41821"
       sodipodi:cx="150.95483"
       id="path3039"
       style="fill:none;stroke:#000000;stroke-width:0.95923442;stroke-linejoin:miter;stroke-miterlimit:4;stroke-opacity:1;stroke-dasharray:none"
       sodipodi:type="arc" />
    <path
       sodipodi:type="arc"
       style="fill:none;stroke:#000000;stroke-width:0.95923442;stroke-linejoin:miter;stroke-miterlimit:4;stroke-opacity:1;stroke-dasharray:none"
       id="path3041"
       sodipodi:cx="150.95483"
       sodipodi:cy="712.41821"
       sodipodi:rx="6.6018109"
       sodipodi:ry="6.3062072"
       d="m 157.55664,712.41821 a 6.6018109,6.3062072 0 1 1 -13.20362,0 6.6018109,6.3062072 0 1 1 13.20362,0 z"
       transform="matrix(1.1439255,0,0,-1.1975471,143.72534,1469.9609)" />
    <path
       transform="matrix(1.1439255,0,0,-1.1975471,257.72534,1469.9609)"
       d="m 157.55664,712.41821 a 6.6018109,6.3062072 0 1 1 -13.20362,0 6.6018109,6.3062072 0 1 1 13.20362,0 z"
       sodipodi:ry="6.3062072"
       sodipodi:rx="6.6018109"
       sodipodi:cy="712.41821"
       sodipodi:cx="150.95483"
       id="path3043"
       style="fill:none;stroke:#000000;stroke-width:0.95923442;stroke-linejoin:miter;stroke-miterlimit:4;stroke-opacity:1;stroke-dasharray:none"
       sodipodi:type="arc" />
    <path
       sodipodi:type="arc"
       style="fill:none;stroke:#000000;stroke-width:0.95923442;stroke-linejoin:miter;stroke-miterlimit:4;stroke-opacity:1;stroke-dasharray:none"
       id="path3045"
       sodipodi:cx="150.95483"
       sodipodi:cy="712.41821"
       sodipodi:rx="6.6018109"
       sodipodi:ry="6.3062072"
       d="m 157.55664,712.41821 a 6.6018109,6.3062072 0 1 1 -13.20362,0 6.6018109,6.3062072 0 1 1 13.20362,0 z"
       transform="matrix(1.1439255,0,0,-1.1975471,201.72534,1445.9609)" />
    <rect
       y="488.87012"
       x="288.51797"
       height="87.580086"
       width="172.713"
       id="rect3050"
       style="color:#000000;fill:none;stroke:#000000;stroke-width:1.0052582px;stroke-linecap:butt;stroke-linejoin:miter;stroke-miterlimit:4;stroke-opacity:1;stroke-dasharray:none;stroke-dashoffset:0;marker:none;visibility:visible;display:inline;overflow:visible;enable-background:accumulate" />
    <flowRoot
       xml:space="preserve"
       id="flowRoot3144"
       style="font-size:9px;font-style:normal;font-weight:bold;line-height:100%;letter-spacing:0px;word-spacing:0px;fill:#d4aa00;fill-opacity:1;stroke:none;font-family:Sans;-inkscape-font-specification:Sans Bold"
       transform="translate(192.32143,103.60714)"
       inkscape:transform-center-x="2.208252"><flowRegion
         id="flowRegion3146"><rect
           id="rect3148"
           width="48.035713"
           height="89.10714"
           x="241.60715"
           y="377.71933"
           style="font-size:9px;fill:#d4aa00" /></flowRegion><flowPara
         id="flowPara3150">Sense</flowPara></flowRoot>    <text
       xml:space="preserve"
       style="font-size:40px;font-style:normal;font-weight:bold;line-height:100%;letter-spacing:0px;word-spacing:0px;fill:#000000;fill-opacity:1;stroke:none;font-family:Sans;-inkscape-font-specification:Sans Bold"
       x="470.89285"
       y="457.71933"
       id="text3152"
       sodipodi:linespacing="100%"><tspan
         sodipodi:role="line"
         id="tspan3154"
         x="470.89285"
         y="457.71933" /></text>
    <flowRoot
       inkscape:transform-center-x="2.208252"
       transform="translate(188.32143,201.60714)"
       style="font-size:9px;font-style:normal;font-weight:bold;line-height:100%;letter-spacing:0px;word-spacing:0px;fill:#d4aa00;fill-opacity:1;stroke:none;font-family:Sans;-inkscape-font-specification:Sans Bold"
       id="flowRoot3156"
       xml:space="preserve"><flowRegion
         id="flowRegion3158"><rect
           style="font-size:9px;fill:#d4aa00"
           y="377.71933"
           x="241.60715"
           height="89.10714"
           width="48.035713"
           id="rect3160" /></flowRegion><flowPara
         id="flowPara3162">Battery</flowPara></flowRoot>    <path
       inkscape:connector-curvature="0"
       id="path3164"
       d="m 499.41083,357.44761 171.91675,0 0,350.32036 -171.91675,0 0,-350.32036"
       style="fill:none;stroke:#000000;stroke-width:1.00156868" />
    <path
       inkscape:connector-curvature="0"
       id="path3166"
       d="m 556.81822,438.59775 53.29837,0 0,13.17938 -53.29837,0 0,-13.17938"
       style="fill:none;stroke:#000000;stroke-width:1.06670618" />
    <path
       transform="matrix(1.1439255,0,0,1.1975471,411.72534,-476.3479)"
       d="m 157.55664,712.41821 a 6.6018109,6.3062072 0 1 1 -13.20362,0 6.6018109,6.3062072 0 1 1 13.20362,0 z"
       sodipodi:ry="6.3062072"
       sodipodi:rx="6.6018109"
       sodipodi:cy="712.41821"
       sodipodi:cx="150.95483"
       id="path3168"
       style="fill:none;stroke:#000000;stroke-width:0.95923442;stroke-linejoin:miter;stroke-miterlimit:4;stroke-opacity:1;stroke-dasharray:none"
       sodipodi:type="arc" />
    <rect
       ry="0"
       y="357.06213"
       x="499.71973"
       height="40.018959"
       width="40.018959"
       id="rect3170"
       style="color:#000000;fill:none;stroke:#000000;stroke-width:2.50072789;stroke-linecap:butt;stroke-linejoin:miter;stroke-miterlimit:4;stroke-opacity:1;stroke-dasharray:none;stroke-dashoffset:0;marker:none;visibility:visible;display:inline;overflow:visible;enable-background:accumulate" />
    <rect
       style="color:#000000;fill:none;stroke:#000000;stroke-width:2.50072765;stroke-linecap:butt;stroke-linejoin:miter;stroke-miterlimit:4;stroke-opacity:1;stroke-dasharray:none;stroke-dashoffset:0;marker:none;visibility:visible;display:inline;overflow:visible;enable-background:accumulate"
       id="rect3172"
       width="40.018959"
       height="40.018959"
       x="630.427"
       y="359.06219"
       ry="0" />
    <path
       sodipodi:type="arc"
       style="fill:none;stroke:#000000;stroke-width:0.95923442;stroke-linejoin:miter;stroke-miterlimit:4;stroke-opacity:1;stroke-dasharray:none"
       id="path3174"
       sodipodi:cx="150.95483"
       sodipodi:cy="712.41821"
       sodipodi:rx="6.6018109"
       sodipodi:ry="6.3062072"
       d="m 157.55664,712.41821 a 6.6018109,6.3062072 0 1 1 -13.20362,0 6.6018109,6.3062072 0 1 1 13.20362,0 z"
       transform="matrix(1.1439255,0,0,1.1975471,383.72534,-462.3479)" />
    <path
       transform="matrix(1.1439255,0,0,1.1975471,441.72534,-462.34624)"
       d="m 157.55664,712.41821 a 6.6018109,6.3062072 0 1 1 -13.20362,0 6.6018109,6.3062072 0 1 1 13.20362,0 z"
       sodipodi:ry="6.3062072"
       sodipodi:rx="6.6018109"
       sodipodi:cy="712.41821"
       sodipodi:cx="150.95483"
       id="path3176"
       style="fill:none;stroke:#000000;stroke-width:0.95923442;stroke-linejoin:miter;stroke-miterlimit:4;stroke-opacity:1;stroke-dasharray:none"
       sodipodi:type="arc" />
    <path
       sodipodi:type="arc"
       style="fill:none;stroke:#000000;stroke-width:0.95923442;stroke-linejoin:miter;stroke-miterlimit:4;stroke-opacity:1;stroke-dasharray:none"
       id="path3178"
       sodipodi:cx="150.95483"
       sodipodi:cy="712.41821"
       sodipodi:rx="6.6018109"
       sodipodi:ry="6.3062072"
       d="m 157.55664,712.41821 a 6.6018109,6.3062072 0 1 1 -13.20362,0 6.6018109,6.3062072 0 1 1 13.20362,0 z"
       transform="matrix(1.1439255,0,0,-1.1975471,411.72534,1545.3725)" />
    <rect
       transform="scale(1,-1)"
       style="color:#000000;fill:none;stroke:#000000;stroke-width:2.50072765;stroke-linecap:butt;stroke-linejoin:miter;stroke-miterlimit:4;stroke-opacity:1;stroke-dasharray:none;stroke-dashoffset:0;marker:none;visibility:visible;display:inline;overflow:visible;enable-background:accumulate"
       id="rect3180"
       width="40.018959"
       height="40.018959"
       x="500.11386"
       y="-707.66223"
       ry="0" />
    <rect
       transform="scale(1,-1)"
       ry="0"
       y="-705.69153"
       x="630.427"
       height="40.018959"
       width="40.018959"
       id="rect3182"
       style="color:#000000;fill:none;stroke:#000000;stroke-width:2.50072742;stroke-linecap:butt;stroke-linejoin:miter;stroke-miterlimit:4;stroke-opacity:1;stroke-dasharray:none;stroke-dashoffset:0;marker:none;visibility:visible;display:inline;overflow:visible;enable-background:accumulate" />
    <path
       style="fill:none;stroke:#000000;stroke-width:1.06670618"
       d="m 556.81822,610.59776 53.29837,0 0,13.17938 -53.29837,0 0,-13.17938"
       id="path3184"
       inkscape:connector-curvature="0" />
    <path
       transform="matrix(1.1439255,0,0,1.1975471,353.72534,-236.3479)"
       d="m 157.55664,712.41821 a 6.6018109,6.3062072 0 1 1 -13.20362,0 6.6018109,6.3062072 0 1 1 13.20362,0 z"
       sodipodi:ry="6.3062072"
       sodipodi:rx="6.6018109"
       sodipodi:cy="712.41821"
       sodipodi:cx="150.95483"
       id="path3186"
       style="fill:none;stroke:#000000;stroke-width:0.95923442;stroke-linejoin:miter;stroke-miterlimit:4;stroke-opacity:1;stroke-dasharray:none"
       sodipodi:type="arc" />
    <path
       sodipodi:type="arc"
       style="fill:none;stroke:#000000;stroke-width:0.95923442;stroke-linejoin:miter;stroke-miterlimit:4;stroke-opacity:1;stroke-dasharray:none"
       id="path3188"
       sodipodi:cx="150.95483"
       sodipodi:cy="712.41821"
       sodipodi:rx="6.6018109"
       sodipodi:ry="6.3062072"
       d="m 157.55664,712.41821 a 6.6018109,6.3062072 0 1 1 -13.20362,0 6.6018109,6.3062072 0 1 1 13.20362,0 z"
       transform="matrix(1.1439255,0,0,1.1975471,467.72534,-236.3479)" />
    <path
       sodipodi:type="arc"
       style="fill:none;stroke:#000000;stroke-width:0.95923442;stroke-linejoin:miter;stroke-miterlimit:4;stroke-opacity:1;stroke-dasharray:none"
       id="path3190"
       sodipodi:cx="150.95483"
       sodipodi:cy="712.41821"
       sodipodi:rx="6.6018109"
       sodipodi:ry="6.3062072"
       d="m 157.55664,712.41821 a 6.6018109,6.3062072 0 1 1 -13.20362,0 6.6018109,6.3062072 0 1 1 13.20362,0 z"
       transform="matrix(1.1439255,0,0,1.1975471,353.72534,-408.3479)" />
    <path
       transform="matrix(1.1439255,0,0,1.1975471,467.72534,-408.3479)"
       d="m 157.55664,712.41821 a 6.6018109,6.3062072 0 1 1 -13.20362,0 6.6018109,6.3062072 0 1 1 13.20362,0 z"
       sodipodi:ry="6.3062072"
       sodipodi:rx="6.6018109"
       sodipodi:cy="712.41821"
       sodipodi:cx="150.95483"
       id="path3192"
       style="fill:none;stroke:#000000;stroke-width:0.95923442;stroke-linejoin:miter;stroke-miterlimit:4;stroke-opacity:1;stroke-dasharray:none"
       sodipodi:type="arc" />
    <path
       sodipodi:type="arc"
       style="fill:none;stroke:#000000;stroke-width:0.95923442;stroke-linejoin:miter;stroke-miterlimit:4;stroke-opacity:1;stroke-dasharray:none"
       id="path3194"
       sodipodi:cx="150.95483"
       sodipodi:cy="712.41821"
       sodipodi:rx="6.6018109"
       sodipodi:ry="6.3062072"
       d="m 157.55664,712.41821 a 6.6018109,6.3062072 0 1 1 -13.20362,0 6.6018109,6.3062072 0 1 1 13.20362,0 z"
       transform="matrix(1.1439255,0,0,1.1975471,411.72534,-384.3479)" />
    <path
       transform="matrix(1.1439255,0,0,-1.1975471,383.72534,1523.9609)"
       d="m 157.55664,712.41821 a 6.6018109,6.3062072 0 1 1 -13.20362,0 6.6018109,6.3062072 0 1 1 13.20362,0 z"
       sodipodi:ry="6.3062072"
       sodipodi:rx="6.6018109"
       sodipodi:cy="712.41821"
       sodipodi:cx="150.95483"
       id="path3196"
       style="fill:none;stroke:#000000;stroke-width:0.95923442;stroke-linejoin:miter;stroke-miterlimit:4;stroke-opacity:1;stroke-dasharray:none"
       sodipodi:type="arc" />
    <path
       sodipodi:type="arc"
       style="fill:none;stroke:#000000;stroke-width:0.95923442;stroke-linejoin:miter;stroke-miterlimit:4;stroke-opacity:1;stroke-dasharray:none"
       id="path3198"
       sodipodi:cx="150.95483"
       sodipodi:cy="712.41821"
       sodipodi:rx="6.6018109"
       sodipodi:ry="6.3062072"
       d="m 157.55664,712.41821 a 6.6018109,6.3062072 0 1 1 -13.20362,0 6.6018109,6.3062072 0 1 1 13.20362,0 z"
       transform="matrix(1.1439255,0,0,-1.1975471,441.72534,1523.9592)" />
    <path
       transform="matrix(1.1439255,0,0,-1.1975471,353.72534,1469.9609)"
       d="m 157.55664,712.41821 a 6.6018109,6.3062072 0 1 1 -13.20362,0 6.6018109,6.3062072 0 1 1 13.20362,0 z"
       sodipodi:ry="6.3062072"
       sodipodi:rx="6.6018109"
       sodipodi:cy="712.41821"
       sodipodi:cx="150.95483"
       id="path3200"
       style="fill:none;stroke:#000000;stroke-width:0.95923442;stroke-linejoin:miter;stroke-miterlimit:4;stroke-opacity:1;stroke-dasharray:none"
       sodipodi:type="arc" />
    <path
       sodipodi:type="arc"
       style="fill:none;stroke:#000000;stroke-width:0.95923442;stroke-linejoin:miter;stroke-miterlimit:4;stroke-opacity:1;stroke-dasharray:none"
       id="path3202"
       sodipodi:cx="150.95483"
       sodipodi:cy="712.41821"
       sodipodi:rx="6.6018109"
       sodipodi:ry="6.3062072"
       d="m 157.55664,712.41821 a 6.6018109,6.3062072 0 1 1 -13.20362,0 6.6018109,6.3062072 0 1 1 13.20362,0 z"
       transform="matrix(1.1439255,0,0,-1.1975471,467.72534,1469.9609)" />
    <path
       transform="matrix(1.1439255,0,0,-1.1975471,411.72534,1445.9609)"
       d="m 157.55664,712.41821 a 6.6018109,6.3062072 0 1 1 -13.20362,0 6.6018109,6.3062072 0 1 1 13.20362,0 z"
       sodipodi:ry="6.3062072"
       sodipodi:rx="6.6018109"
       sodipodi:cy="712.41821"
       sodipodi:cx="150.95483"
       id="path3204"
       style="fill:none;stroke:#000000;stroke-width:0.95923442;stroke-linejoin:miter;stroke-miterlimit:4;stroke-opacity:1;stroke-dasharray:none"
       sodipodi:type="arc" />
    <flowRoot
       inkscape:transform-center-x="2.208252"
       transform="translate(402.32143,103.60714)"
       style="font-size:9px;font-style:normal;font-weight:bold;line-height:100%;letter-spacing:0px;word-spacing:0px;fill:#d4aa00;fill-opacity:1;stroke:none;font-family:Sans;-inkscape-font-specification:Sans Bold"
       id="flowRoot3208"
       xml:space="preserve"><flowRegion
         id="flowRegion3210"><rect
           style="font-size:9px;fill:#d4aa00"
           y="377.71933"
           x="241.60715"
           height="89.10714"
           width="48.035713"
           id="rect3212" /></flowRegion><flowPara
         id="flowPara3214">Sense</flowPara></flowRoot>    <flowRoot
       xml:space="preserve"
       id="flowRoot3216"
       style="font-size:9px;font-style:normal;font-weight:bold;line-height:100%;letter-spacing:0px;word-spacing:0px;fill:#d4aa00;fill-opacity:1;stroke:none;font-family:Sans;-inkscape-font-specification:Sans Bold"
       transform="translate(398.32143,201.60714)"
       inkscape:transform-center-x="2.208252"><flowRegion
         id="flowRegion3218"><rect
           id="rect3220"
           width="48.035713"
           height="89.10714"
           x="241.60715"
           y="377.71933"
           style="font-size:9px;fill:#d4aa00" /></flowRegion><flowPara
         id="flowPara3222">Battery</flowPara></flowRoot>    <path
       inkscape:connector-curvature="0"
       id="path3224"
       d="m 81.41083,357.44761 171.91675,0 0,350.32036 -171.91675,0 0,-350.32036"
       style="fill:none;stroke:#000000;stroke-width:1.00156868" />
    <path
       inkscape:connector-curvature="0"
       id="path3226"
       d="m 138.81822,438.59775 53.29837,0 0,13.17938 -53.29837,0 0,-13.17938"
       style="fill:none;stroke:#000000;stroke-width:1.06670618" />
    <path
       transform="matrix(1.1439255,0,0,1.1975471,-6.27466,-476.3479)"
       d="m 157.55664,712.41821 a 6.6018109,6.3062072 0 1 1 -13.20362,0 6.6018109,6.3062072 0 1 1 13.20362,0 z"
       sodipodi:ry="6.3062072"
       sodipodi:rx="6.6018109"
       sodipodi:cy="712.41821"
       sodipodi:cx="150.95483"
       id="path3228"
       style="fill:none;stroke:#000000;stroke-width:0.95923442;stroke-linejoin:miter;stroke-miterlimit:4;stroke-opacity:1;stroke-dasharray:none"
       sodipodi:type="arc" />
    <rect
       ry="0"
       y="357.06213"
       x="81.719727"
       height="40.018959"
       width="40.018959"
       id="rect3230"
       style="color:#000000;fill:none;stroke:#000000;stroke-width:2.50072789;stroke-linecap:butt;stroke-linejoin:miter;stroke-miterlimit:4;stroke-opacity:1;stroke-dasharray:none;stroke-dashoffset:0;marker:none;visibility:visible;display:inline;overflow:visible;enable-background:accumulate" />
    <rect
       style="color:#000000;fill:none;stroke:#000000;stroke-width:2.50072765;stroke-linecap:butt;stroke-linejoin:miter;stroke-miterlimit:4;stroke-opacity:1;stroke-dasharray:none;stroke-dashoffset:0;marker:none;visibility:visible;display:inline;overflow:visible;enable-background:accumulate"
       id="rect3232"
       width="40.018959"
       height="40.018959"
       x="212.42697"
       y="359.06219"
       ry="0" />
    <path
       sodipodi:type="arc"
       style="fill:none;stroke:#000000;stroke-width:0.95923442;stroke-linejoin:miter;stroke-miterlimit:4;stroke-opacity:1;stroke-dasharray:none"
       id="path3234"
       sodipodi:cx="150.95483"
       sodipodi:cy="712.41821"
       sodipodi:rx="6.6018109"
       sodipodi:ry="6.3062072"
       d="m 157.55664,712.41821 a 6.6018109,6.3062072 0 1 1 -13.20362,0 6.6018109,6.3062072 0 1 1 13.20362,0 z"
       transform="matrix(1.1439255,0,0,1.1975471,-34.27466,-462.3479)" />
    <path
       transform="matrix(1.1439255,0,0,1.1975471,23.72534,-462.34624)"
       d="m 157.55664,712.41821 a 6.6018109,6.3062072 0 1 1 -13.20362,0 6.6018109,6.3062072 0 1 1 13.20362,0 z"
       sodipodi:ry="6.3062072"
       sodipodi:rx="6.6018109"
       sodipodi:cy="712.41821"
       sodipodi:cx="150.95483"
       id="path3236"
       style="fill:none;stroke:#000000;stroke-width:0.95923442;stroke-linejoin:miter;stroke-miterlimit:4;stroke-opacity:1;stroke-dasharray:none"
       sodipodi:type="arc" />
    <path
       sodipodi:type="arc"
       style="fill:none;stroke:#000000;stroke-width:0.95923442;stroke-linejoin:miter;stroke-miterlimit:4;stroke-opacity:1;stroke-dasharray:none"
       id="path3238"
       sodipodi:cx="150.95483"
       sodipodi:cy="712.41821"
       sodipodi:rx="6.6018109"
       sodipodi:ry="6.3062072"
       d="m 157.55664,712.41821 a 6.6018109,6.3062072 0 1 1 -13.20362,0 6.6018109,6.3062072 0 1 1 13.20362,0 z"
       transform="matrix(1.1439255,0,0,-1.1975471,-6.27466,1545.3725)" />
    <rect
       transform="scale(1,-1)"
       style="color:#000000;fill:none;stroke:#000000;stroke-width:2.50072765;stroke-linecap:butt;stroke-linejoin:miter;stroke-miterlimit:4;stroke-opacity:1;stroke-dasharray:none;stroke-dashoffset:0;marker:none;visibility:visible;display:inline;overflow:visible;enable-background:accumulate"
       id="rect3240"
       width="40.018959"
       height="40.018959"
       x="82.113861"
       y="-707.66223"
       ry="0" />
    <rect
       transform="scale(1,-1)"
       ry="0"
       y="-705.69153"
       x="212.42697"
       height="40.018959"
       width="40.018959"
       id="rect3242"
       style="color:#000000;fill:none;stroke:#000000;stroke-width:2.50072742;stroke-linecap:butt;stroke-linejoin:miter;stroke-miterlimit:4;stroke-opacity:1;stroke-dasharray:none;stroke-dashoffset:0;marker:none;visibility:visible;display:inline;overflow:visible;enable-background:accumulate" />
    <path
       style="fill:none;stroke:#000000;stroke-width:1.06670618"
       d="m 138.81822,610.59776 53.29837,0 0,13.17938 -53.29837,0 0,-13.17938"
       id="path3244"
       inkscape:connector-curvature="0" />
    <path
       transform="matrix(1.1439255,0,0,1.1975471,-64.27466,-236.3479)"
       d="m 157.55664,712.41821 a 6.6018109,6.3062072 0 1 1 -13.20362,0 6.6018109,6.3062072 0 1 1 13.20362,0 z"
       sodipodi:ry="6.3062072"
       sodipodi:rx="6.6018109"
       sodipodi:cy="712.41821"
       sodipodi:cx="150.95483"
       id="path3246"
       style="fill:none;stroke:#000000;stroke-width:0.95923442;stroke-linejoin:miter;stroke-miterlimit:4;stroke-opacity:1;stroke-dasharray:none"
       sodipodi:type="arc" />
    <path
       sodipodi:type="arc"
       style="fill:none;stroke:#000000;stroke-width:0.95923442;stroke-linejoin:miter;stroke-miterlimit:4;stroke-opacity:1;stroke-dasharray:none"
       id="path3248"
       sodipodi:cx="150.95483"
       sodipodi:cy="712.41821"
       sodipodi:rx="6.6018109"
       sodipodi:ry="6.3062072"
       d="m 157.55664,712.41821 a 6.6018109,6.3062072 0 1 1 -13.20362,0 6.6018109,6.3062072 0 1 1 13.20362,0 z"
       transform="matrix(1.1439255,0,0,1.1975471,49.72534,-236.3479)" />
    <path
       sodipodi:type="arc"
       style="fill:none;stroke:#000000;stroke-width:0.95923442;stroke-linejoin:miter;stroke-miterlimit:4;stroke-opacity:1;stroke-dasharray:none"
       id="path3250"
       sodipodi:cx="150.95483"
       sodipodi:cy="712.41821"
       sodipodi:rx="6.6018109"
       sodipodi:ry="6.3062072"
       d="m 157.55664,712.41821 a 6.6018109,6.3062072 0 1 1 -13.20362,0 6.6018109,6.3062072 0 1 1 13.20362,0 z"
       transform="matrix(1.1439255,0,0,1.1975471,-64.27466,-408.3479)" />
    <path
       transform="matrix(1.1439255,0,0,1.1975471,49.72534,-408.3479)"
       d="m 157.55664,712.41821 a 6.6018109,6.3062072 0 1 1 -13.20362,0 6.6018109,6.3062072 0 1 1 13.20362,0 z"
       sodipodi:ry="6.3062072"
       sodipodi:rx="6.6018109"
       sodipodi:cy="712.41821"
       sodipodi:cx="150.95483"
       id="path3252"
       style="fill:none;stroke:#000000;stroke-width:0.95923442;stroke-linejoin:miter;stroke-miterlimit:4;stroke-opacity:1;stroke-dasharray:none"
       sodipodi:type="arc" />
    <path
       sodipodi:type="arc"
       style="fill:none;stroke:#000000;stroke-width:0.95923442;stroke-linejoin:miter;stroke-miterlimit:4;stroke-opacity:1;stroke-dasharray:none"
       id="path3254"
       sodipodi:cx="150.95483"
       sodipodi:cy="712.41821"
       sodipodi:rx="6.6018109"
       sodipodi:ry="6.3062072"
       d="m 157.55664,712.41821 a 6.6018109,6.3062072 0 1 1 -13.20362,0 6.6018109,6.3062072 0 1 1 13.20362,0 z"
       transform="matrix(1.1439255,0,0,1.1975471,-6.27466,-384.3479)" />
    <path
       transform="matrix(1.1439255,0,0,-1.1975471,-34.27466,1523.9609)"
       d="m 157.55664,712.41821 a 6.6018109,6.3062072 0 1 1 -13.20362,0 6.6018109,6.3062072 0 1 1 13.20362,0 z"
       sodipodi:ry="6.3062072"
       sodipodi:rx="6.6018109"
       sodipodi:cy="712.41821"
       sodipodi:cx="150.95483"
       id="path3256"
       style="fill:none;stroke:#000000;stroke-width:0.95923442;stroke-linejoin:miter;stroke-miterlimit:4;stroke-opacity:1;stroke-dasharray:none"
       sodipodi:type="arc" />
    <path
       sodipodi:type="arc"
       style="fill:none;stroke:#000000;stroke-width:0.95923442;stroke-linejoin:miter;stroke-miterlimit:4;stroke-opacity:1;stroke-dasharray:none"
       id="path3258"
       sodipodi:cx="150.95483"
       sodipodi:cy="712.41821"
       sodipodi:rx="6.6018109"
       sodipodi:ry="6.3062072"
       d="m 157.55664,712.41821 a 6.6018109,6.3062072 0 1 1 -13.20362,0 6.6018109,6.3062072 0 1 1 13.20362,0 z"
       transform="matrix(1.1439255,0,0,-1.1975471,23.72534,1523.9592)" />
    <path
       transform="matrix(1.1439255,0,0,-1.1975471,-64.27466,1469.9609)"
       d="m 157.55664,712.41821 a 6.6018109,6.3062072 0 1 1 -13.20362,0 6.6018109,6.3062072 0 1 1 13.20362,0 z"
       sodipodi:ry="6.3062072"
       sodipodi:rx="6.6018109"
       sodipodi:cy="712.41821"
       sodipodi:cx="150.95483"
       id="path3260"
       style="fill:none;stroke:#000000;stroke-width:0.95923442;stroke-linejoin:miter;stroke-miterlimit:4;stroke-opacity:1;stroke-dasharray:none"
       sodipodi:type="arc" />
    <path
       sodipodi:type="arc"
       style="fill:none;stroke:#000000;stroke-width:0.95923442;stroke-linejoin:miter;stroke-miterlimit:4;stroke-opacity:1;stroke-dasharray:none"
       id="path3262"
       sodipodi:cx="150.95483"
       sodipodi:cy="712.41821"
       sodipodi:rx="6.6018109"
       sodipodi:ry="6.3062072"
       d="m 157.55664,712.41821 a 6.6018109,6.3062072 0 1 1 -13.20362,0 6.6018109,6.3062072 0 1 1 13.20362,0 z"
       transform="matrix(1.1439255,0,0,-1.1975471,49.72534,1469.9609)" />
    <path
       transform="matrix(1.1439255,0,0,-1.1975471,-6.27466,1445.9609)"
       d="m 157.55664,712.41821 a 6.6018109,6.3062072 0 1 1 -13.20362,0 6.6018109,6.3062072 0 1 1 13.20362,0 z"
       sodipodi:ry="6.3062072"
       sodipodi:rx="6.6018109"
       sodipodi:cy="712.41821"
       sodipodi:cx="150.95483"
       id="path3264"
       style="fill:none;stroke:#000000;stroke-width:0.95923442;stroke-linejoin:miter;stroke-miterlimit:4;stroke-opacity:1;stroke-dasharray:none"
       sodipodi:type="arc" />
    <rect
       style="color:#000000;fill:none;stroke:#000000;stroke-width:1.0052582px;stroke-linecap:butt;stroke-linejoin:miter;stroke-miterlimit:4;stroke-opacity:1;stroke-dasharray:none;stroke-dashoffset:0;marker:none;visibility:visible;display:inline;overflow:visible;enable-background:accumulate"
       id="rect3266"
       width="172.713"
       height="87.580086"
       x="80.517967"
       y="488.87012" />
    <flowRoot
       inkscape:transform-center-x="2.208252"
       transform="translate(-15.67857,103.60714)"
       style="font-size:9px;font-style:normal;font-weight:bold;line-height:100%;letter-spacing:0px;word-spacing:0px;fill:#d4aa00;fill-opacity:1;stroke:none;font-family:Sans;-inkscape-font-specification:Sans Bold"
       id="flowRoot3268"
       xml:space="preserve"><flowRegion
         id="flowRegion3270"><rect
           style="font-size:9px;fill:#d4aa00"
           y="377.71933"
           x="241.60715"
           height="89.10714"
           width="48.035713"
           id="rect3272" /></flowRegion><flowPara
         id="flowPara3274">Sense</flowPara></flowRoot>    <flowRoot
       xml:space="preserve"
       id="flowRoot3276"
       style="font-size:9px;font-style:normal;font-weight:bold;line-height:100%;letter-spacing:0px;word-spacing:0px;fill:#d4aa00;fill-opacity:1;stroke:none;font-family:Sans;-inkscape-font-specification:Sans Bold"
       transform="translate(-19.67857,201.60714)"
       inkscape:transform-center-x="2.208252"><flowRegion
         id="flowRegion3278"><rect
           id="rect3280"
           width="48.035713"
           height="89.10714"
           x="241.60715"
           y="377.71933"
           style="font-size:9px;fill:#d4aa00" /></flowRegion><flowPara
         id="flowPara3282">Battery</flowPara></flowRoot>  </g>
</svg>
